<?xml version="1.0" standalone="no"?>
<!DOCTYPE svg PUBLIC "-//W3C//DTD SVG 20010904//EN"
 "http://www.w3.org/TR/2001/REC-SVG-20010904/DTD/svg10.dtd">
<svg version="1.0" xmlns="http://www.w3.org/2000/svg"
 width="2448.000000pt" height="2448pt" viewBox="0 0 2448 2448"
 preserveAspectRatio="xMidYMid meet">
<metadata>
Created by potrace 1.16, written by Peter Selinger 2001-2019
</metadata>

<g><circle cx="1224" cy="1224" r="1200" fill="white" stroke="white" stroke-width="0"/></g>
<g transform="translate(0.000000,2448.000000) scale(0.100000,-0.100000)"
fill="#C02B2B" stroke="none">
<path d="M14595 16955 c-115 -18 -217 -48 -339 -100 -125 -53 -669 -340 -688
-362 -10 -13 -8 -19 11 -34 13 -11 39 -19 57 -19 56 0 148 -36 334 -131 312
-159 493 -283 681 -469 184 -181 249 -288 345 -564 94 -270 155 -360 322 -470
53 -35 185 -110 292 -166 484 -254 709 -448 842 -721 65 -133 72 -168 73 -362
1 -140 4 -170 17 -183 61 -61 196 222 252 526 57 312 74 635 42 805 -64 331
-251 652 -726 1245 -86 107 -214 269 -285 360 -322 413 -581 593 -925 645
-113 18 -196 18 -305 0z"/>
<path d="M12605 15950 c-382 -9 -495 -25 -688 -93 -255 -92 -515 -291 -752
-577 -200 -241 -315 -462 -384 -735 -93 -371 -141 -781 -121 -1042 21 -272 66
-481 184 -854 36 -114 88 -287 116 -385 166 -584 261 -763 581 -1106 239 -256
474 -422 694 -491 188 -59 364 -58 613 3 168 41 285 87 507 198 105 52 231
110 280 129 50 19 98 43 109 53 18 18 18 20 -29 92 -136 208 -186 278 -320
447 -229 290 -276 361 -450 686 -64 121 -140 254 -168 295 -80 117 -240 269
-442 419 -292 218 -394 312 -498 462 -61 87 -103 173 -127 261 -28 102 -28
299 0 391 56 182 219 317 459 381 148 40 265 49 549 43 222 -4 285 -9 462 -36
443 -68 489 -73 675 -74 103 0 296 9 450 22 295 24 303 27 339 92 l19 35 -81
159 c-192 378 -515 843 -686 985 -142 118 -310 192 -508 225 -118 20 -389 25
-783 15z"/>
<path d="M10235 14923 c-44 -19 -138 -50 -210 -68 -223 -56 -393 -127 -550
-229 -303 -198 -532 -493 -700 -904 -97 -240 -125 -388 -145 -773 -19 -362 3
-492 161 -959 155 -459 193 -617 220 -921 12 -133 7 -465 -10 -714 -20 -299
52 -587 203 -814 88 -132 178 -226 406 -425 107 -94 265 -238 350 -321 260
-252 363 -333 672 -533 250 -161 281 -186 511 -410 285 -277 396 -360 567
-423 225 -82 449 -75 635 19 229 115 458 391 551 664 36 107 39 145 14 218
-26 77 -61 129 -131 196 -97 91 -212 144 -519 239 -461 142 -781 305 -966 490
-66 66 -126 148 -310 426 -126 189 -248 378 -272 420 -101 180 -144 327 -216
739 -26 146 -73 400 -106 565 -33 165 -82 439 -110 609 -65 393 -129 719 -241
1224 -112 502 -123 576 -116 792 5 182 22 265 77 386 34 76 144 241 248 376
90 115 100 135 81 152 -12 11 -27 7 -94 -21z"/>
<path d="M14752 14329 c-111 -20 -179 -39 -647 -179 -479 -143 -637 -200 -808
-294 -236 -128 -393 -281 -437 -425 -16 -50 -16 -59 -2 -100 23 -67 111 -152
187 -180 137 -52 353 -70 625 -52 448 29 646 34 841 23 224 -13 330 -30 669
-106 342 -76 694 -144 787 -152 71 -5 80 -4 101 15 27 27 29 76 7 224 -25 164
-72 321 -169 559 -138 340 -329 546 -587 632 -174 58 -365 70 -567 35z"/>
<path d="M17190 13354 c-71 -19 -118 -47 -212 -128 -91 -77 -129 -130 -159
-217 -37 -109 -23 -278 81 -949 63 -411 76 -592 61 -870 -24 -442 -64 -774
-141 -1175 -62 -320 -74 -423 -67 -549 7 -107 22 -178 52 -236 21 -42 54 -80
70 -80 15 0 66 56 93 101 50 83 184 229 260 281 122 84 218 114 429 130 265
21 656 -10 862 -69 l94 -26 19 23 c12 15 18 39 18 75 0 79 26 212 61 311 70
200 259 515 459 763 137 170 362 422 448 501 89 81 89 82 -22 135 -159 76
-375 282 -671 640 -325 393 -673 777 -904 997 -183 176 -367 285 -559 334
-107 27 -191 30 -272 8z"/>
<path d="M13755 12756 c-5 -3 -55 -8 -109 -11 -85 -6 -102 -10 -123 -31 -28
-28 -30 -78 -7 -168 56 -217 234 -398 459 -464 70 -21 112 -25 329 -33 284
-10 392 -25 558 -79 167 -55 289 -120 363 -195 70 -69 85 -107 85 -212 0 -182
-89 -305 -405 -559 -198 -159 -350 -298 -436 -398 l-71 -81 27 -23 c22 -18 34
-21 63 -16 83 15 223 54 322 90 119 44 1048 509 1184 592 174 107 280 243 293
374 14 147 -148 431 -390 684 -114 120 -197 182 -322 244 -226 112 -532 186
-1055 256 -160 21 -245 27 -475 30 -154 2 -284 2 -290 0z"/>
<path d="M11239 10748 c-26 -43 -20 -93 32 -252 54 -163 100 -256 220 -438
175 -264 342 -454 530 -600 172 -134 302 -205 609 -332 102 -43 264 -119 360
-171 346 -186 523 -242 1056 -340 277 -51 396 -76 657 -141 246 -60 379 -78
547 -71 323 13 515 133 781 489 275 366 437 680 494 956 51 247 -42 461 -241
554 -144 67 -229 40 -709 -226 -115 -65 -320 -173 -455 -240 -578 -291 -792
-360 -1295 -415 -422 -47 -808 -47 -1081 -1 -454 78 -973 301 -1156 498 -111
120 -220 381 -263 626 -15 87 -35 136 -55 136 -6 0 -19 -15 -31 -32z"/>
</g>

<g transform="translate(0.000000,2448.000000) scale(0.100000,-0.100000)"
fill="#199225" stroke="none">
<path d="M6738 14533 c-20 -24 -25 -39 -53 -167 -89 -413 -204 -834 -364
-1336 -91 -288 -182 -706 -228 -1047 -23 -175 -23 -531 0 -663 52 -302 172
-598 313 -777 137 -172 322 -266 524 -266 346 -1 761 262 1016 644 79 118 126
220 162 346 24 88 27 114 27 258 -1 177 -5 201 -87 530 -81 325 -88 370 -95
581 -9 304 12 406 158 746 95 222 133 349 123 408 -4 19 -17 58 -30 85 -83
177 -244 251 -743 340 -363 64 -479 112 -618 252 -46 46 -84 83 -86 83 -2 0
-11 -8 -19 -17z"/>
<path d="M5990 9981 c-94 -31 -170 -111 -201 -213 -25 -80 -22 -135 10 -238
65 -206 242 -372 467 -439 97 -29 267 -56 473 -76 210 -21 402 -16 576 14 483
86 676 167 970 408 162 133 255 222 255 244 0 11 -11 31 -25 44 -31 32 -46 32
-305 0 -237 -29 -460 -32 -640 -10 -137 17 -488 60 -615 76 -243 30 -388 62
-640 140 -162 51 -272 68 -325 50z"/>
</g>

<g transform="translate(0.000000,2448.000000) scale(0.100000,-0.100000)"
fill="#000000" stroke="none">
<path d="M1418 12433 c-35 -54 -91 -141 -125 -193 -42 -64 -58 -97 -50 -101 7
-4 111 -37 232 -74 481 -147 1622 -497 1660 -509 l40 -13 205 348 204 349 541
1 c297 1 735 5 974 8 l435 6 -610 83 c-335 46 -625 88 -644 93 -19 5 -600 26
-1290 48 -690 22 -1312 43 -1382 46 l-127 6 -63 -98z"/>
<path d="M3575 11793 c-97 -169 -177 -311 -178 -316 -3 -14 172 -66 224 -66
l45 -1 164 293 c90 160 177 316 193 345 l29 52 -150 0 -150 0 -177 -307z"/>
<path d="M4266 12008 c-8 -13 -97 -170 -199 -349 l-184 -326 64 -23 c35 -12
65 -21 67 -19 7 7 397 709 402 724 5 12 -6 15 -65 15 -62 0 -72 -3 -85 -22z"/>
<path d="M4453 11582 c-116 -185 -212 -341 -213 -347 -1 -5 49 -27 112 -47 89
-31 125 -38 172 -36 l59 3 212 383 213 382 -172 0 -171 -1 -212 -337z"/>
<path d="M5300 11785 c-7 -9 -113 -182 -235 -385 l-223 -369 57 -16 c31 -9 73
-21 94 -27 20 -6 39 -9 41 -7 2 2 92 168 201 369 108 201 206 380 217 397 11
18 17 37 13 43 -10 17 -150 13 -165 -5z"/>
<path d="M5674 11457 c-28 -45 -120 -191 -204 -325 -84 -134 -151 -244 -149
-246 5 -3 184 -56 192 -56 3 0 58 99 123 221 98 184 118 227 115 257 -1 21 -8
81 -14 134 l-12 97 -51 -82z"/>
<path d="M19538 10022 c-13 -15 -39 -46 -56 -68 l-32 -42 1018 -6 c1743 -12
2767 -12 2772 -1 2 6 -100 25 -260 47 l-265 37 -825 15 c-454 9 -1097 20
-1430 26 -333 5 -671 12 -751 15 l-146 5 -25 -28z"/>
<path d="M1224 9709 c3 -19 13 -86 21 -149 17 -124 28 -197 74 -475 119 -720
207 -1152 306 -1500 20 -71 40 -143 45 -160 13 -48 79 -252 117 -360 42 -121
334 -928 363 -1005 12 -30 28 -73 36 -95 42 -115 112 -256 173 -348 71 -107
197 -229 365 -352 426 -315 621 -492 997 -910 591 -655 1021 -999 1964 -1572
169 -103 671 -393 815 -471 260 -142 627 -373 840 -531 132 -97 389 -301 600
-477 313 -259 437 -342 605 -401 140 -49 188 -54 610 -63 623 -13 820 -42
1406 -201 517 -141 561 -145 1204 -105 143 9 349 19 457 24 l198 7 -78 65
c-42 36 -326 269 -629 518 l-553 453 0 42 c0 40 39 1507 60 2272 5 198 16 623
25 945 8 322 17 649 21 728 6 134 8 144 28 152 11 5 226 32 476 59 250 28 919
102 1485 166 567 63 1210 135 1430 160 351 39 1682 188 2460 276 385 43 2499
279 3080 344 609 68 587 66 603 78 11 9 142 258 142 270 0 3 -249 -25 -1700
-187 -322 -36 -1046 -117 -1610 -180 -1147 -129 -1209 -136 -2455 -275 -489
-55 -1074 -121 -1300 -146 -2526 -282 -2702 -302 -2747 -316 -50 -16 -104 -63
-129 -111 -31 -61 -38 -161 -55 -853 -8 -346 -24 -954 -34 -1350 -11 -396 -24
-913 -30 -1150 -6 -236 -13 -472 -16 -522 l-6 -93 -52 0 -53 0 -284 233
c-1032 844 -1221 1001 -1226 1013 -3 8 0 218 6 467 6 249 18 765 26 1147 8
382 19 868 25 1080 5 212 12 532 16 712 4 180 10 332 14 338 7 12 146 25 1040
99 135 12 295 25 355 31 339 30 931 80 965 81 14 0 -29 19 -95 43 -66 23 -172
66 -234 94 l-115 52 -285 -25 c-158 -14 -473 -41 -701 -60 -1085 -92 -1033
-85 -1093 -143 -16 -15 -38 -45 -50 -67 -19 -38 -21 -66 -33 -585 -21 -884
-43 -1847 -55 -2425 -6 -297 -12 -546 -15 -552 -2 -9 -23 -13 -61 -13 l-58 1
-530 435 c-291 239 -542 447 -558 462 l-27 27 10 415 c15 632 38 1653 51 2260
6 300 14 565 18 590 l6 45 80 7 c44 4 206 17 360 28 154 11 424 32 600 45 176
13 536 40 800 60 264 20 517 39 562 43 l83 7 -87 74 -86 75 -231 -17 c-127
-10 -350 -26 -496 -37 -425 -33 -879 -67 -1255 -95 -192 -14 -366 -30 -386
-36 -45 -11 -85 -42 -104 -78 -15 -30 -21 -206 -50 -1536 -8 -379 -20 -863
-25 -1075 -6 -212 -10 -424 -10 -472 l0 -88 -57 0 -58 0 -430 353 -430 352 -3
155 c-3 151 32 2294 43 2655 3 99 9 183 13 187 5 5 206 20 448 33 241 14 549
32 684 39 135 8 588 34 1008 57 419 24 762 46 762 50 0 4 -33 23 -72 42 -144
71 -98 69 -664 37 -581 -33 -669 -41 -849 -76 -110 -22 -166 -27 -365 -31
-129 -2 -280 -1 -335 4 -107 9 -650 -17 -676 -32 -29 -17 -61 -51 -71 -74 -5
-14 -17 -488 -28 -1065 -10 -573 -22 -1206 -26 -1408 l-7 -368 -56 0 -56 0
-363 297 -362 297 0 281 c0 385 29 2457 35 2472 2 7 -9 20 -24 28 -29 14 -29
14 -40 -17 -8 -21 -16 -407 -26 -1172 -9 -628 -16 -1206 -18 -1286 l-2 -145
-57 -3 -57 -3 -278 227 c-153 125 -293 241 -311 258 l-33 30 6 166 c3 91 12
431 20 755 8 325 20 793 26 1041 6 248 9 458 7 465 -7 18 -26 -657 -48 -1696
-6 -275 -13 -533 -16 -572 l-6 -73 -51 0 -52 1 -255 209 c-140 116 -261 218
-267 227 -7 9 -13 29 -13 45 0 26 -3 28 -42 28 -41 0 -55 10 -268 185 -139
113 -226 192 -228 204 -2 14 -11 21 -25 21 -20 0 -429 324 -467 369 -8 10 -20
20 -27 22 -6 2 -105 81 -220 175 -461 379 -1632 1338 -1686 1381 l-58 45 5
-33z"/>
<path d="M19267 9608 c-8 -13 -45 -70 -82 -127 -179 -278 -368 -381 -693 -381
-118 0 -236 14 -488 55 -321 53 -402 60 -485 46 -111 -20 -181 -62 -279 -165
-247 -262 -268 -278 -501 -372 -79 -32 -156 -70 -171 -84 -15 -14 -132 -209
-259 -435 -127 -225 -237 -417 -245 -426 -11 -12 -51 -19 -167 -28 -83 -6
-334 -27 -557 -46 -408 -35 -822 -70 -1465 -125 -192 -17 -395 -34 -450 -39
-97 -8 -100 -9 -124 -42 -14 -19 -65 -74 -113 -123 l-88 -88 52 6 c29 3 141
13 248 21 107 9 267 22 355 30 88 8 246 22 350 30 105 9 289 24 410 35 121 11
303 26 405 34 182 15 423 36 1130 97 195 17 378 29 406 26 28 -3 228 -56 445
-118 l394 -113 325 22 c179 12 777 53 1330 92 553 39 1283 90 1622 114 497 35
622 47 642 59 33 22 50 55 387 746 159 327 294 600 299 606 7 8 121 14 400 19
215 4 401 11 413 15 17 7 34 34 62 103 47 115 187 397 248 501 l46 77 -1894 0
-1895 0 -13 -22z"/>
<path d="M22196 8618 c-16 -14 -177 -337 -422 -843 -218 -451 -473 -977 -566
-1170 -192 -395 -233 -484 -227 -490 2 -2 101 -33 219 -70 118 -36 268 -82
333 -102 l117 -36 0 -53 c0 -62 17 -54 -180 -83 -74 -11 -358 -54 -630 -95
-272 -42 -794 -121 -1160 -176 -366 -55 -885 -134 -1155 -175 -269 -41 -938
-142 -1485 -225 -547 -83 -1173 -178 -1390 -211 -217 -33 -512 -77 -655 -99
-832 -125 -1152 -175 -1235 -191 -67 -14 -116 -38 -152 -76 -58 -61 -56 -34
-73 -1061 -8 -521 -22 -1356 -30 -1856 -8 -499 -12 -932 -9 -962 4 -30 12 -58
18 -63 7 -6 56 -7 120 -3 l110 7 8 30 c11 40 23 574 49 2280 15 1022 25 1433
33 1442 6 7 202 41 441 78 237 36 502 77 590 90 169 26 2895 439 3170 480 247
37 1930 292 2110 320 88 13 401 61 695 105 552 84 765 120 812 139 15 6 36 27
46 48 67 131 250 645 351 984 72 241 215 754 268 959 143 554 175 674 238 885
29 99 57 188 60 198 7 16 -7 17 -193 17 -194 0 -202 -1 -226 -22z"/>
<path d="M13528 8253 c-28 -4 -28 -5 -28 -84 0 -43 3 -79 8 -79 4 0 156 11
337 25 182 14 369 28 416 31 81 6 94 4 229 -35 l143 -42 163 22 c90 13 161 26
156 30 -22 19 -769 98 -1127 119 -99 5 -200 12 -225 14 -25 2 -57 2 -72 -1z"/>
<path d="M20000 3323 c-14 -2 -178 -31 -365 -64 -326 -58 -454 -81 -1030 -184
-253 -45 -413 -74 -950 -169 -305 -55 -313 -57 -370 -90 -33 -20 -50 -40 -71
-82 l-27 -56 -8 -526 c-10 -700 -10 -814 0 -831 8 -12 30 -6 125 34 110 45
116 50 127 84 6 22 15 258 21 591 7 391 14 559 22 567 11 12 124 34 881 169
171 30 369 66 440 79 72 13 198 36 280 50 443 77 714 133 757 156 10 5 41 44
69 87 29 42 72 103 96 135 23 31 39 56 35 56 -4 -1 -18 -4 -32 -6z"/>
</g>
<g><circle cx="1224" cy="1224" r="1149" fill="none" stroke="black" stroke-width="150"/></g>
</svg>
